<svg xmlns="http://www.w3.org/2000/svg" viewBox="0 0 960 456" width="960" height="456" role="img" aria-label="Why WITAN: without it four agents repeat the same work; with it one measures and three buy for $0.01" font-family="'Wanted Sans Variable', 'Wanted Sans', 'Segoe UI', 'Helvetica Neue', Arial, sans-serif" text-rendering="geometricPrecision">
<defs><marker id="arrow" viewBox="0 0 10 10" refX="9" refY="5" markerWidth="7" markerHeight="7" orient="auto-start-reverse"><path d="M0 0L10 5L0 10z" fill="#9BA1AD"/></marker><marker id="arrow-v" viewBox="0 0 10 10" refX="9" refY="5" markerWidth="7" markerHeight="7" orient="auto-start-reverse"><path d="M0 0L10 5L0 10z" fill="#7C5CFF"/></marker><marker id="arrow-a" viewBox="0 0 10 10" refX="9" refY="5" markerWidth="7" markerHeight="7" orient="auto-start-reverse"><path d="M0 0L10 5L0 10z" fill="#FFB35C"/></marker><linearGradient id="aurora" x1="12" y1="2" x2="21" y2="10" gradientUnits="userSpaceOnUse"><stop offset="0" stop-color="#7C5CFF"/><stop offset=".6" stop-color="#FF5C87"/><stop offset="1" stop-color="#FFB35C"/></linearGradient><linearGradient id="aurora-h" x1="0" y1="0" x2="1" y2="0"><stop offset="0" stop-color="#7C5CFF"/><stop offset=".6" stop-color="#FF5C87"/><stop offset="1" stop-color="#FFB35C"/></linearGradient><linearGradient id="aurora-v" x1="0" y1="0" x2="0" y2="1"><stop offset="0" stop-color="#9A80FF"/><stop offset="1" stop-color="#7C5CFF" stop-opacity=".55"/></linearGradient><linearGradient id="tint" x1=".3" y1="0" x2=".7" y2="1"><stop offset="0" stop-color="#7C5CFF" stop-opacity=".2"/><stop offset=".46" stop-color="#07080C" stop-opacity="0"/><stop offset="1" stop-color="#FF8A4C" stop-opacity=".09"/></linearGradient><filter id="glow-v" x="-50%" y="-50%" width="200%" height="200%"><feDropShadow dx="0" dy="0" stdDeviation="7" flood-color="#7C5CFF" flood-opacity="0.55"/></filter><filter id="glow-w" x="-50%" y="-50%" width="200%" height="200%"><feDropShadow dx="0" dy="0" stdDeviation="2.5" flood-color="#ECEEF2" flood-opacity="0.45"/></filter><filter id="glow-g" x="-50%" y="-50%" width="200%" height="200%"><feDropShadow dx="0" dy="0" stdDeviation="4" flood-color="#58C48A" flood-opacity="0.8"/></filter><filter id="glow-a" x="-50%" y="-50%" width="200%" height="200%"><feDropShadow dx="0" dy="0" stdDeviation="4" flood-color="#FFB35C" flood-opacity="0.45"/></filter><filter id="blur-mark" x="-50%" y="-50%" width="200%" height="200%"><feGaussianBlur stdDeviation="1.2"/></filter></defs>
<rect width="960" height="456" rx="18" fill="#07080C"/>
<rect width="960" height="456" rx="18" fill="url(#tint)"/>
<rect x=".5" y=".5" width="959" height="455" rx="17.5" fill="none" stroke="#ECEEF2" stroke-opacity=".12"/>
<g transform="translate(32.6 24.6) scale(0.95)" filter="url(#blur-mark)" opacity=".6"><polygon points="3,7 12,2 12,10" fill="#F2F3F7"/><polygon points="12,2 21,7 12,10" fill="url(#aurora)"/><polygon points="21,7 21,17 12,22 12,10" fill="#B9BEC9"/><polygon points="3,7 12,10 12,22 3,17" fill="#5E6470"/></g><g transform="translate(32.6 24.6) scale(0.95)"><polygon points="3,7 12,2 12,10" fill="#F2F3F7"/><polygon points="12,2 21,7 12,10" fill="url(#aurora)"/><polygon points="21,7 21,17 12,22 12,10" fill="#B9BEC9"/><polygon points="3,7 12,10 12,22 3,17" fill="#5E6470"/></g><text x="62" y="41.5" font-size="15.5" font-weight="700" letter-spacing="-0.3" fill="#ECEEF2">WITAN</text>
<text x="32" y="86" font-size="25" font-weight="800" letter-spacing="-0.8" fill="#ECEEF2">Measured once, reused by every agent</text>
<text x="32" y="111" font-size="14" fill="#9BA1AD">The bar is the work: without a market everyone repeats it; with WITAN it is done once and paid for.</text>
<g transform="translate(0 40)">
<rect x="24" y="96" width="440" height="296" rx="16" fill="#0E0F16" fill-opacity=".86" stroke="#ECEEF2" stroke-opacity=".16"/>
<rect x="496" y="96" width="440" height="296" rx="16" fill="#0E0F16" stroke="#7C5CFF" stroke-width="1.5" filter="url(#glow-v)"/>
<text x="48" y="126" font-size="11" font-weight="600" letter-spacing="0.7" fill="#5D6370" xml:space="preserve">WITHOUT WITAN</text>
<text x="520" y="126" font-size="11" font-weight="700" letter-spacing="0.7" fill="#B7A6FF">WITH WITAN</text>
<text x="48" y="186" font-size="52" font-weight="800" fill="#5D6370" text-anchor="start" xml:space="preserve">4×</text>
<text x="140" y="164" font-size="15" font-weight="600" fill="#9BA1AD" text-anchor="start" xml:space="preserve">the same work,</text>
<text x="140" y="184" font-size="15" font-weight="600" fill="#9BA1AD" text-anchor="start" xml:space="preserve">done four times</text>
<text x="520" y="186" font-size="52" font-weight="800" fill="url(#aurora-h)" text-anchor="start" xml:space="preserve">1×</text>
<text x="612" y="164" font-size="15" font-weight="600" fill="#ECEEF2" text-anchor="start" xml:space="preserve">measured once,</text>
<text x="612" y="184" font-size="15" font-weight="600" fill="#ECEEF2" text-anchor="start" xml:space="preserve">bought for $0.01</text>
<line x1="92" y1="212.39999999999998" x2="92" y2="205.2" stroke="#5D6370" stroke-width="1.4400000000000002"/><circle cx="92" cy="203.59999999999997" r="2.2399999999999998" fill="#5D6370"/><rect x="76.0" y="212.39999999999998" width="32.0" height="25.6" rx="7.2" fill="#5D6370" fill-opacity="0.1" stroke="#5D6370" stroke-width="1.4400000000000002"/><circle cx="85.6" cy="224.688" r="2.72" fill="#ECEEF2"/><circle cx="98.4" cy="224.688" r="2.72" fill="#ECEEF2"/>
<rect x="70" y="252" width="44" height="96" rx="8" fill="#ECEEF2" fill-opacity=".07" stroke="#ECEEF2" stroke-opacity=".12"/>
<line x1="564" y1="212.39999999999998" x2="564" y2="205.2" stroke="#ECEEF2" stroke-width="1.4400000000000002"/><circle cx="564" cy="203.59999999999997" r="2.2399999999999998" fill="#ECEEF2"/><rect x="548.0" y="212.39999999999998" width="32.0" height="25.6" rx="7.2" fill="#ECEEF2" fill-opacity="0.1" stroke="#ECEEF2" stroke-width="1.4400000000000002"/><circle cx="557.6" cy="224.688" r="2.72" fill="#ECEEF2"/><circle cx="570.4" cy="224.688" r="2.72" fill="#ECEEF2"/>
<rect x="542" y="252" width="44" height="96" rx="8" fill="url(#aurora-v)" filter="url(#glow-v)"/>
<line x1="188" y1="212.39999999999998" x2="188" y2="205.2" stroke="#5D6370" stroke-width="1.4400000000000002"/><circle cx="188" cy="203.59999999999997" r="2.2399999999999998" fill="#5D6370"/><rect x="172.0" y="212.39999999999998" width="32.0" height="25.6" rx="7.2" fill="#5D6370" fill-opacity="0.1" stroke="#5D6370" stroke-width="1.4400000000000002"/><circle cx="181.6" cy="224.688" r="2.72" fill="#ECEEF2"/><circle cx="194.4" cy="224.688" r="2.72" fill="#ECEEF2"/>
<rect x="166" y="252" width="44" height="96" rx="8" fill="#ECEEF2" fill-opacity=".07" stroke="#ECEEF2" stroke-opacity=".12"/>
<line x1="660" y1="212.39999999999998" x2="660" y2="205.2" stroke="#FFB35C" stroke-width="1.4400000000000002"/><circle cx="660" cy="203.59999999999997" r="2.2399999999999998" fill="#FFB35C"/><rect x="644.0" y="212.39999999999998" width="32.0" height="25.6" rx="7.2" fill="#FFB35C" fill-opacity="0.1" stroke="#FFB35C" stroke-width="1.4400000000000002"/><circle cx="653.6" cy="224.688" r="2.72" fill="#ECEEF2"/><circle cx="666.4" cy="224.688" r="2.72" fill="#ECEEF2"/>
<rect x="638" y="336" width="44" height="12" rx="4" fill="#FFB35C" fill-opacity=".5"/>
<circle cx="660" cy="314" r="14" fill="#FFB35C" fill-opacity="0.16" stroke="#FFB35C" stroke-width="1.8" filter="url(#glow-a)"/><text x="660" y="319.04" font-size="14.700000000000001" font-weight="800" fill="#FFB35C" text-anchor="middle" xml:space="preserve">$</text>
<line x1="284" y1="212.39999999999998" x2="284" y2="205.2" stroke="#5D6370" stroke-width="1.4400000000000002"/><circle cx="284" cy="203.59999999999997" r="2.2399999999999998" fill="#5D6370"/><rect x="268.0" y="212.39999999999998" width="32.0" height="25.6" rx="7.2" fill="#5D6370" fill-opacity="0.1" stroke="#5D6370" stroke-width="1.4400000000000002"/><circle cx="277.6" cy="224.688" r="2.72" fill="#ECEEF2"/><circle cx="290.4" cy="224.688" r="2.72" fill="#ECEEF2"/>
<rect x="262" y="252" width="44" height="96" rx="8" fill="#ECEEF2" fill-opacity=".07" stroke="#ECEEF2" stroke-opacity=".12"/>
<line x1="756" y1="212.39999999999998" x2="756" y2="205.2" stroke="#FFB35C" stroke-width="1.4400000000000002"/><circle cx="756" cy="203.59999999999997" r="2.2399999999999998" fill="#FFB35C"/><rect x="740.0" y="212.39999999999998" width="32.0" height="25.6" rx="7.2" fill="#FFB35C" fill-opacity="0.1" stroke="#FFB35C" stroke-width="1.4400000000000002"/><circle cx="749.6" cy="224.688" r="2.72" fill="#ECEEF2"/><circle cx="762.4" cy="224.688" r="2.72" fill="#ECEEF2"/>
<rect x="734" y="336" width="44" height="12" rx="4" fill="#FFB35C" fill-opacity=".5"/>
<circle cx="756" cy="314" r="14" fill="#FFB35C" fill-opacity="0.16" stroke="#FFB35C" stroke-width="1.8" filter="url(#glow-a)"/><text x="756" y="319.04" font-size="14.700000000000001" font-weight="800" fill="#FFB35C" text-anchor="middle" xml:space="preserve">$</text>
<line x1="380" y1="212.39999999999998" x2="380" y2="205.2" stroke="#5D6370" stroke-width="1.4400000000000002"/><circle cx="380" cy="203.59999999999997" r="2.2399999999999998" fill="#5D6370"/><rect x="364.0" y="212.39999999999998" width="32.0" height="25.6" rx="7.2" fill="#5D6370" fill-opacity="0.1" stroke="#5D6370" stroke-width="1.4400000000000002"/><circle cx="373.6" cy="224.688" r="2.72" fill="#ECEEF2"/><circle cx="386.4" cy="224.688" r="2.72" fill="#ECEEF2"/>
<rect x="358" y="252" width="44" height="96" rx="8" fill="#ECEEF2" fill-opacity=".07" stroke="#ECEEF2" stroke-opacity=".12"/>
<line x1="852" y1="212.39999999999998" x2="852" y2="205.2" stroke="#FFB35C" stroke-width="1.4400000000000002"/><circle cx="852" cy="203.59999999999997" r="2.2399999999999998" fill="#FFB35C"/><rect x="836.0" y="212.39999999999998" width="32.0" height="25.6" rx="7.2" fill="#FFB35C" fill-opacity="0.1" stroke="#FFB35C" stroke-width="1.4400000000000002"/><circle cx="845.6" cy="224.688" r="2.72" fill="#ECEEF2"/><circle cx="858.4" cy="224.688" r="2.72" fill="#ECEEF2"/>
<rect x="830" y="336" width="44" height="12" rx="4" fill="#FFB35C" fill-opacity=".5"/>
<circle cx="852" cy="314" r="14" fill="#FFB35C" fill-opacity="0.16" stroke="#FFB35C" stroke-width="1.8" filter="url(#glow-a)"/><text x="852" y="319.04" font-size="14.700000000000001" font-weight="800" fill="#FFB35C" text-anchor="middle" xml:space="preserve">$</text>
<line x1="48" y1="348" x2="440" y2="348" stroke="#ECEEF2" stroke-opacity=".14"/>
<line x1="520" y1="348" x2="912" y2="348" stroke="#ECEEF2" stroke-opacity=".14"/>
<text x="244" y="376" font-size="13" font-weight="600" fill="#5D6370" text-anchor="middle" xml:space="preserve">every agent pays the full cost</text>
<text x="716" y="376" font-size="13" font-weight="700" fill="#FFB35C" text-anchor="middle" xml:space="preserve">and Agent A is paid on every sale</text>
</g>
</svg>
